<mxfile host="app.diagrams.net" modified="2023-10-11T03:24:50.260Z" agent="Mozilla/5.0 (Macintosh; Intel Mac OS X 10_15_7) AppleWebKit/537.36 (KHTML, like Gecko) Chrome/115.0.0.0 Safari/537.36" version="21.3.8" etag="68m_J3aQhjN-x0S8J-VX" type="github">
  <diagram name="第 1 页" id="jV7wGJp07mq3WOKV_kup">
    <mxGraphModel>
      <root>
        <mxCell id="0" />
        <mxCell id="1" parent="0" />
      </root>
    </mxGraphModel>
  </diagram>
</mxfile>
